<?xml version="1.0" standalone="no"?>
<!DOCTYPE svg PUBLIC "-//W3C//DTD SVG 20010904//EN"
 "http://www.w3.org/TR/2001/REC-SVG-20010904/DTD/svg10.dtd">
<svg version="1.0" xmlns="http://www.w3.org/2000/svg"
 width="260.000000pt" height="260.000000pt" viewBox="0 0 260.000000 260.000000"
 preserveAspectRatio="xMidYMid meet">
<metadata>
Created by potrace 1.11, written by Peter Selinger 2001-2013
</metadata>
<g transform="translate(0.000000,260.000000) scale(0.100000,-0.100000)"
fill="#000000" stroke="none">
<path d="M813 2465 c-44 -31 -27 -111 27 -121 22 -5 40 -23 78 -83 27 -42 95
-146 151 -232 55 -86 101 -160 101 -165 -1 -5 -15 -18 -33 -29 -18 -11 -41
-39 -52 -62 -17 -35 -25 -42 -50 -43 -16 -1 -95 -3 -175 -5 -172 -3 -183 -5
-279 -50 -126 -60 -231 -191 -260 -325 -6 -25 -10 -195 -10 -380 0 -308 2
-340 21 -400 45 -143 168 -272 296 -311 40 -12 42 -14 42 -51 0 -49 0 -50 11
-71 16 -29 37 -19 82 38 l42 55 495 0 495 0 42 -55 c24 -30 50 -55 58 -55 20
0 35 40 35 91 0 29 4 39 16 39 32 0 152 72 201 121 28 28 65 76 81 107 59 111
61 132 61 495 0 189 -4 351 -10 377 -38 169 -177 312 -350 361 -24 7 -111 13
-194 15 -82 1 -161 3 -175 3 -20 1 -29 9 -38 36 -12 32 -56 78 -84 87 -17 6
-8 24 80 158 56 85 75 106 100 112 41 11 62 51 51 94 -23 85 -157 46 -135 -40
5 -20 -11 -51 -81 -160 l-88 -135 -65 0 -66 0 -154 237 c-136 210 -154 242
-155 281 -2 69 -59 103 -112 66z m951 -1041 c14 -10 29 -30 33 -44 3 -14 6
-199 6 -412 0 -348 -2 -389 -17 -413 -9 -14 -28 -30 -42 -35 -15 -6 -251 -10
-579 -10 l-555 0 -32 29 -33 29 -1 399 c-1 464 -2 458 85 472 18 3 276 6 571
5 511 -1 539 -2 564 -20z m291 -100 c39 -18 68 -71 61 -110 -22 -118 -172
-133 -215 -20 -12 32 -12 41 4 76 17 39 61 69 98 70 11 0 34 -7 52 -16z m22
-445 c81 -68 23 -210 -81 -196 -90 12 -131 105 -78 177 35 46 114 56 159 19z"/>
<path d="M1476 1300 c-65 -20 -106 -87 -107 -177 -1 -68 28 -142 69 -174 l26
-20 -28 -55 c-40 -76 -106 -144 -139 -144 -36 0 -65 34 -73 89 -10 64 -10 221
0 311 14 125 15 134 4 147 -13 16 -52 17 -78 3 -17 -9 -23 -28 -44 -135 -38
-190 -135 -403 -190 -413 -56 -11 -82 95 -72 292 4 72 10 147 15 166 15 67 0
100 -45 100 -65 0 -84 -81 -80 -335 3 -177 17 -243 66 -295 86 -92 226 -10
295 173 10 26 19 46 20 45 2 -2 6 -25 9 -53 16 -126 63 -199 130 -203 88 -6
204 88 275 223 l21 40 70 0 c81 1 107 16 96 59 -6 24 -11 26 -59 27 -28 1 -56
1 -60 0 -5 -1 -6 7 -2 18 3 11 8 29 10 40 2 12 7 25 10 31 11 17 13 142 4 170
-21 58 -83 88 -143 70z m44 -95 c16 -19 8 -115 -14 -165 l-14 -34 -21 35 c-48
75 -2 226 49 164z"/>
</g>
</svg>
