<svg xmlns="http://www.w3.org/2000/svg" viewBox="0 0 177.09 248.03"><defs><style>.cls-1{fill:#eee;}</style></defs><title>Asset 3</title><g id="Layer_2" data-name="Layer 2"><g id="Layer_4" data-name="Layer 4"><path class="cls-1" d="M177.09,37.1a37.11,37.11,0,1,0-50.24,34.7H77.31a37.1,37.1,0,1,0-26.26,0H47.42A10.23,10.23,0,0,0,37.2,82V88H20.07L1.78,78A1.2,1.2,0,0,0,.59,78a1.18,1.18,0,0,0-.59,1v54a1.2,1.2,0,0,0,.59,1,1.22,1.22,0,0,0,.61.17,1.19,1.19,0,0,0,.58-.15l18.33-10H37.2v9.21a10.23,10.23,0,0,0,10.22,10.22h29.2l19.26,33.35-35.63,61.7a5.81,5.81,0,0,0,2.12,7.91l1.31.75a5.77,5.77,0,0,0,7.9-2.12L103.43,190l31.85,55.16a5.8,5.8,0,0,0,5,2.9h0a5.77,5.77,0,0,0,2.89-.78l1.3-.75a5.81,5.81,0,0,0,2.12-7.91L111,176.89l19.25-33.35h29.21a10.23,10.23,0,0,0,10.22-10.22V82A10.24,10.24,0,0,0,159.45,71.8h-6.34A37.16,37.16,0,0,0,177.09,37.1ZM69.5,243.93a3.4,3.4,0,0,1-2.93,1.69,3.45,3.45,0,0,1-1.69-.45l-1.3-.76a3.37,3.37,0,0,1-1.24-4.62L97.27,179.3l4.77,8.27ZM29.49,37.1A34.7,34.7,0,1,1,64.18,71.8,34.73,34.73,0,0,1,29.49,37.1Zm-27.08,44L18.6,89.9v32.29L2.41,131ZM21,121.7V90.37H37.2V121.7ZM143.29,244.41l-1.31.76a3.45,3.45,0,0,1-1.69.45,3.4,3.4,0,0,1-2.93-1.69l-58-100.39H89l13.44,23.27h0l6.16,10.68h0l36,62.3A3.38,3.38,0,0,1,143.29,244.41ZM91.73,143.54h23.4l-11.7,20.26Zm17.87,30.94-4.78-8.27,13.09-22.67h9.55ZM159.45,74.21A7.82,7.82,0,0,1,167.26,82v51.3a7.83,7.83,0,0,1-7.81,7.82h-112a7.83,7.83,0,0,1-7.82-7.82V82a7.82,7.82,0,0,1,7.82-7.81ZM140,71.8a34.7,34.7,0,1,1,34.7-34.7A34.74,34.74,0,0,1,140,71.8Z"/><path class="cls-1" d="M141,24.12l.65-.1.13,0q.34-.07.69-.18l0,0A8.3,8.3,0,0,0,148,18.3h0c.07-.23.13-.46.18-.7l0-.11c0-.22.07-.44.1-.67,0,0,0-.1,0-.16h0a8.06,8.06,0,0,0,0-.85,8.38,8.38,0,0,0-16.76,0,8.06,8.06,0,0,0,0,.85h0a1,1,0,0,1,0,.17c0,.22.06.44.11.66,0,0,0,.07,0,.11.06.24.11.47.18.7h0a8.3,8.3,0,0,0,5.47,5.49l.06,0c.22.07.45.13.68.18l.13,0,.66.1.16,0a7.08,7.08,0,0,0,1.68,0Zm.73-2.6a3.9,3.9,0,0,1-.46.12l-.13,0-.43.06-.15,0a5.43,5.43,0,0,1-1.14,0l-.15,0-.43-.06-.12,0a3.59,3.59,0,0,1-.47-.12l-.06,0a6,6,0,0,1-3.89-3.88l0-.08a1.16,1.16,0,0,1,0-.18l.13,0c.37-.11.74-.2,1.11-.28l.23-.06c.39-.08.78-.15,1.18-.21l.36-.05c.38,0,.77-.09,1.15-.12l.36,0q.54,0,1.08,0h.32q.54,0,1.08,0l.36,0c.38,0,.77.07,1.15.12l.36.05c.4.06.79.13,1.18.21l.23.06c.37.08.74.17,1.11.28l.14,0c0,.06,0,.12-.05.18l0,.08a6,6,0,0,1-3.89,3.88ZM140.56,9.86l.19,0,.38.06.22.05.33.09.23.07.3.11.22.1.29.14.21.11.27.16.19.13.26.2.18.14.25.22.15.15a3.58,3.58,0,0,1,.26.29l.11.12a3.61,3.61,0,0,1,.33.44l.06.1c.08.12.16.24.23.37l.09.18.15.31a1.8,1.8,0,0,1,.08.21l.12.32a1.87,1.87,0,0,0,.07.22l.08.32c0,.08,0,.16.05.24s0,.11,0,.16l-.1,0c-.39-.1-.77-.19-1.16-.27l-.5-.1-.76-.12-.77-.1-.81-.08-.66,0-.64,0-.5,0-.5,0-.64,0-.65,0-.82.08-.76.1-.77.12-.49.1c-.39.08-.78.17-1.16.27l-.11,0,0-.16c0-.08,0-.16,0-.24l.09-.32.06-.22.12-.32a1.8,1.8,0,0,1,.08-.21l.15-.31a1.62,1.62,0,0,1,.1-.18,3.1,3.1,0,0,1,.21-.36l.07-.11a3.61,3.61,0,0,1,.33-.44l.11-.13.26-.28.15-.15.25-.22.18-.15.26-.19.2-.13.26-.16.22-.12.28-.13.22-.1.31-.11.22-.07c.11,0,.22-.06.33-.09l.22-.05.38-.06.19,0a5.62,5.62,0,0,1,1.16,0Z"/><path class="cls-1" d="M113.66,37.68l.12.09.53.36.12.06a6.55,6.55,0,0,0,.58.32l.11.05a5.93,5.93,0,0,0,.63.26l.09,0c.22.08.45.15.67.21l.08,0q.36.09.72.15h.06c.25,0,.5.07.76.09h.55A8.39,8.39,0,0,0,127.06,31a6.45,6.45,0,0,0,0-.76,1.5,1.5,0,0,0,0-.2c0-.23-.06-.46-.1-.69,0,0,0,0,0,0,0-.24-.11-.48-.18-.71l-.06-.18a6.42,6.42,0,0,0-.24-.66v0a7.32,7.32,0,0,0-.33-.69l0-.09a8.3,8.3,0,0,0-2.64-2.89l0,0c-.22-.14-.44-.28-.67-.41a7.32,7.32,0,0,0-.69-.33l-.1,0c-.23-.09-.46-.18-.69-.25l-.11,0c-.2-.06-.41-.11-.61-.15l-.17,0c-.23-.05-.47-.08-.7-.11h-.17a6.56,6.56,0,0,0-.76,0A8.39,8.39,0,0,0,110.3,31a7.87,7.87,0,0,0,0,.84c0,.12,0,.24,0,.36s0,.3.07.44.07.3.11.45.05.22.09.33.11.33.17.49l.09.26c.07.17.15.33.23.5a2,2,0,0,1,.1.21c.09.17.19.33.29.5s.07.11.11.17A5.85,5.85,0,0,0,112,36l.11.15c.13.16.26.31.4.46l.11.13c.14.15.29.29.44.43l.12.11Zm11-6.11,0,.19c0,.13,0,.26-.06.38a1.42,1.42,0,0,1-.05.22,3.37,3.37,0,0,1-.09.34l-.07.22-.12.31a2.14,2.14,0,0,1-.1.22c0,.1-.08.19-.13.29l-.12.21-.16.27c0,.07-.09.14-.14.2a2.35,2.35,0,0,1-.19.25l-.15.19-.21.23c-.06.06-.11.12-.17.17l-.24.22-.18.15-.26.2L122,36l-.31.19-.17.1-.4.19-.1.05a5.62,5.62,0,0,1-.53.19l-.14,0-.42.11-.2,0-.3,0V36.8c0-.43,0-.86.06-1.28v0c0-.42.08-.85.14-1.26a.78.78,0,0,1,0-.16q.09-.6.21-1.2c0-.07,0-.14,0-.21.09-.39.18-.78.29-1.16l.06-.21c.12-.39.24-.77.38-1.15a.58.58,0,0,1,0-.14c.14-.38.29-.77.46-1.14l0-.07c.17-.38.35-.75.54-1.12l.09-.18q.28-.52.6-1l.06-.09a6,6,0,0,1,.72.7,1.07,1.07,0,0,1,.14.16c.08.09.14.19.21.28l.16.23c.06.09.11.18.16.27a2.54,2.54,0,0,1,.16.28l.12.26a2.52,2.52,0,0,1,.14.33l.09.24c0,.12.07.25.11.38l.06.22c0,.15,0,.3.07.45l0,.18c0,.22,0,.43,0,.65A5.68,5.68,0,0,1,124.63,31.57ZM118.68,25c.18,0,.36,0,.54,0l.15,0a4,4,0,0,1,.46.07h.07l.4.1a.16.16,0,0,1,0,.07c-.22.38-.44.77-.64,1.16a2.12,2.12,0,0,0-.11.21c-.21.4-.4.8-.58,1.2l-.06.14c-.17.4-.33.81-.48,1.22l0,.11c-.15.42-.28.85-.41,1.27l-.06.23c-.12.42-.23.84-.32,1.26,0,.08,0,.16,0,.23-.09.44-.18.88-.24,1.33,0,0,0,.06,0,.1-.06.43-.11.87-.15,1.31,0,.06,0,.11,0,.17,0,.44,0,.89-.06,1.33,0,0,0,.09,0,.14a6.94,6.94,0,0,1-.9-.34h0A5.87,5.87,0,0,1,114.27,35l-.08-.09a3.11,3.11,0,0,1-.23-.28l-.09-.12-.21-.29-.08-.13c-.12-.21-.24-.42-.34-.64a1,1,0,0,1,0-.1,1.86,1.86,0,0,1-.1-.25l-.1-.25a2.17,2.17,0,0,0-.07-.24c0-.1-.05-.2-.07-.3a1.89,1.89,0,0,1,0-.23c0-.11,0-.23,0-.35l0-.19a5.12,5.12,0,0,1,0-.56A6,6,0,0,1,118.68,25Z"/><path class="cls-1" d="M167.47,36.62l.39-.46L168,36a5.22,5.22,0,0,0,.34-.48,1.74,1.74,0,0,0,.11-.18c.1-.16.2-.32.29-.49s.07-.14.1-.22.16-.32.23-.49.06-.18.1-.26.12-.32.17-.49.05-.22.08-.33.08-.3.11-.45.05-.3.07-.45,0-.23.05-.35a7.89,7.89,0,0,0,0-.84,8.4,8.4,0,0,0-8.39-8.38,6.28,6.28,0,0,0-.75,0h-.18c-.23,0-.46.06-.69.11l-.18,0-.6.15-.12,0c-.23.07-.46.16-.69.25l-.1,0c-.24.1-.46.21-.69.33s-.45.27-.66.41l0,0a8.3,8.3,0,0,0-2.64,2.89l-.05.09a7.32,7.32,0,0,0-.33.69v0q-.13.33-.24.66l-.06.18c-.07.23-.13.47-.18.7a.07.07,0,0,1,0,0c0,.23-.08.46-.1.69a1.5,1.5,0,0,0,0,.2,6.45,6.45,0,0,0,0,.76,8.39,8.39,0,0,0,8.38,8.38h.55c.26,0,.51-.05.76-.09h.06l.72-.15.08,0c.23-.06.45-.13.67-.21l.1,0c.21-.08.42-.16.62-.26l.11-.05.58-.31.12-.08a6.06,6.06,0,0,0,.53-.35l.12-.09.49-.39.12-.11c.15-.14.3-.28.44-.43ZM167.26,31a5.12,5.12,0,0,1,0,.56,1.23,1.23,0,0,0,0,.19l-.06.35a1.89,1.89,0,0,1-.05.23c0,.1,0,.2-.07.3s-.05.16-.07.24l-.1.25a1.86,1.86,0,0,1-.1.25,1,1,0,0,1,0,.1,6.31,6.31,0,0,1-.34.63l-.08.14-.2.29-.09.12-.24.28-.08.09a6,6,0,0,1-1.82,1.36h0a6.94,6.94,0,0,1-.9.34.66.66,0,0,0,0-.14c0-.44,0-.89-.06-1.33,0-.06,0-.11,0-.17,0-.44-.09-.88-.15-1.31,0,0,0-.07,0-.11-.07-.44-.15-.88-.25-1.31a2,2,0,0,0-.05-.24c-.09-.42-.2-.84-.31-1.26a2,2,0,0,1-.07-.23c-.13-.43-.26-.85-.41-1.27l-.05-.12c-.15-.4-.31-.81-.48-1.2l-.06-.15q-.27-.6-.57-1.2l-.12-.22c-.2-.39-.41-.77-.64-1.14,0,0,0,0,0-.08l.4-.1h.09a3.11,3.11,0,0,1,.44-.07l.16,0c.17,0,.35,0,.53,0A6,6,0,0,1,167.26,31Zm-11.92-.65,0-.18a3.54,3.54,0,0,1,.08-.45,1.74,1.74,0,0,1,.05-.22c0-.13.07-.26.11-.38l.09-.25c.05-.11.09-.22.14-.32l.12-.26a2.54,2.54,0,0,1,.16-.28,2.4,2.4,0,0,1,.16-.27l.16-.23.21-.28.14-.16a6,6,0,0,1,.72-.7l.06.09c.21.34.41.7.6,1l.09.17c.19.37.38.75.55,1.13a.14.14,0,0,0,0,.06c.17.38.32.77.46,1.15a1.12,1.12,0,0,1,.05.13c.14.39.27.77.38,1.16l.06.21c.11.38.21.77.29,1.16,0,.07,0,.14.05.21q.12.6.21,1.2a.78.78,0,0,1,0,.16c.06.42.11.84.14,1.26v0c0,.42.05.85.05,1.28v.11l-.3,0-.2,0-.41-.11-.14,0a4.76,4.76,0,0,1-.53-.19l-.12-.05-.39-.19-.18-.11A2.82,2.82,0,0,1,158,36l-.19-.13-.26-.2-.18-.15-.24-.21-.17-.18a2.2,2.2,0,0,1-.2-.23c-.06-.06-.11-.13-.16-.19a2.27,2.27,0,0,1-.18-.25l-.15-.2c0-.09-.1-.18-.16-.27l-.12-.21c0-.1-.09-.19-.13-.29a2.14,2.14,0,0,1-.1-.22,2.83,2.83,0,0,1-.11-.31,2,2,0,0,1-.08-.22l-.09-.34a2.25,2.25,0,0,0-.05-.22l-.06-.38a1.23,1.23,0,0,1,0-.19,5.68,5.68,0,0,1,0-.59C155.31,30.76,155.32,30.55,155.34,30.33Z"/><path class="cls-1" d="M162.39,52.68c0-.2-.06-.39-.1-.58s-.06-.24-.09-.36-.08-.32-.13-.47l-.15-.4c0-.14-.1-.27-.16-.4s-.13-.28-.2-.42-.12-.22-.19-.33-.16-.28-.25-.42l-.21-.3-.29-.4-.25-.27A3.8,3.8,0,0,0,160,48l-.35-.32-.27-.25a7.36,7.36,0,0,0-.63-.47l0,0c-.19-.12-.39-.25-.59-.36l-.26-.13-.41-.2-.34-.13-.37-.14-.37-.12-.38-.09-.37-.08-.45-.07-.31,0a6.85,6.85,0,0,0-.79,0,8.39,8.39,0,0,0-8.38,8.38,6.28,6.28,0,0,0,0,.75,1.5,1.5,0,0,0,0,.2c0,.23.06.45.1.68a1.89,1.89,0,0,1,.05.23l.12.45.09.29a5.71,5.71,0,0,0,.21.58c0,.09.08.17.12.26l.18.39c0,.08.09.17.13.25l0,0c.1.17.2.34.31.5s.09.13.13.19.2.27.3.39a1.56,1.56,0,0,0,.16.2l.43.48.14.13.39.35.21.18.38.29.33.22.38.23.3.16.35.17.43.18.42.15.3.1.48.12.25.06c.21,0,.42.07.64.09l.21,0q.38,0,.75,0a8.4,8.4,0,0,0,8.39-8.38c0-.3,0-.6-.05-.9C162.43,52.87,162.4,52.78,162.39,52.68Zm-8.29-4.79a5.65,5.65,0,0,1,.71,0l.17,0a4.51,4.51,0,0,1,.53.1l.18,0,.55.19.12,0c.21.09.42.19.62.3h0a.83.83,0,0,0-.08.12q-.36.52-.75,1h0c-.26.33-.53.65-.82,1l-.15.17c-.28.31-.56.6-.85.88l-.18.17c-.3.29-.61.57-.94.85h0c-.33.27-.66.53-1,.78a1.33,1.33,0,0,1-.19.14c-.33.24-.67.47-1,.69l-.2.12a18.76,18.76,0,0,1-2.25,1.22l-.11.05a.08.08,0,0,1,0-.05c0-.11-.07-.22-.1-.32l-.06-.22-.06-.29c0-.1,0-.2,0-.3l0-.24c0-.18,0-.36,0-.55A6,6,0,0,1,154.1,47.89ZM160,55.07a6,6,0,0,1-5.86,4.78,4.21,4.21,0,0,1-.62,0h0a6.19,6.19,0,0,1-1.76-.47h0a5.44,5.44,0,0,1-.54-.27l0,0c-.16-.09-.31-.19-.46-.29l-.08-.06-.39-.31-.1-.09-.33-.32,0,0,.1-.05q.6-.28,1.17-.6l.21-.12c.35-.19.69-.4,1-.61l.18-.11q.56-.36,1.08-.75l.24-.17c.36-.27.71-.54,1.05-.83h0c.34-.29.67-.59,1-.89l.21-.2c.32-.31.62-.62.92-.94a2.09,2.09,0,0,0,.14-.17c.27-.29.53-.6.79-.91l.14-.18c.28-.34.54-.69.79-1.05l.07-.09.19.25,0,.06a5.87,5.87,0,0,1,.53,1,.08.08,0,0,1,0,.05,4.13,4.13,0,0,1,.17.45c0,.05,0,.1.05.16l.09.37a1.16,1.16,0,0,1,0,.18l.06.39s0,.11,0,.17a5.12,5.12,0,0,1,0,.56A6,6,0,0,1,160,55.07Z"/><path class="cls-1" d="M133.5,57.31c0-.09.08-.17.11-.26s.15-.39.22-.58,0-.19.08-.29l.12-.45a1.89,1.89,0,0,0,.05-.23c0-.23.08-.45.11-.68a1.23,1.23,0,0,1,0-.2q0-.37,0-.75a8.39,8.39,0,0,0-8.38-8.38,7,7,0,0,0-.79,0l-.31,0-.45.07-.37.08-.38.09-.37.12-.37.14-.34.13-.42.2-.25.13-.6.37,0,0c-.21.15-.42.3-.63.47l-.29.26-.33.31c-.12.12-.22.24-.33.37s-.17.18-.24.27-.21.27-.3.4l-.21.3c-.09.14-.17.28-.25.42a2.68,2.68,0,0,0-.18.33c-.08.14-.14.28-.21.42l-.16.39-.15.41c0,.15-.09.31-.13.47s-.07.24-.09.36-.07.38-.1.58,0,.19,0,.29a6.79,6.79,0,0,0,0,.9,8.39,8.39,0,0,0,8.38,8.38q.38,0,.75,0l.21,0c.22,0,.43,0,.65-.09l.24-.06.48-.12.3-.1.42-.15.43-.18.35-.17.3-.16.38-.23.33-.22.38-.29.21-.18a4.4,4.4,0,0,0,.39-.35l.14-.13c.15-.15.29-.31.43-.48s.11-.13.16-.19.2-.27.3-.4.09-.12.13-.19.21-.32.31-.5l0,0,.13-.25Zm-1.66-3.44a4.93,4.93,0,0,1,0,.55l0,.24c0,.1,0,.2-.05.3l-.06.29-.06.22-.09.32,0,.05-.11-.05a21.38,21.38,0,0,1-2.26-1.22l-.19-.12c-.34-.22-.68-.45-1-.69l-.19-.13A20.36,20.36,0,0,1,125.79,52a1.29,1.29,0,0,1-.17-.16c-.29-.28-.58-.57-.85-.88a1.29,1.29,0,0,1-.16-.17c-.28-.32-.56-.64-.82-1h0c-.26-.33-.5-.67-.74-1l-.09-.12h0c.2-.11.41-.21.62-.3l.13-.05.54-.17.18,0A4.51,4.51,0,0,1,125,48l.18,0a5.36,5.36,0,0,1,.7,0A6,6,0,0,1,131.84,53.87Zm-12,0a5.12,5.12,0,0,1,0-.56,1.11,1.11,0,0,0,0-.17l.06-.39c0-.06,0-.12,0-.18s.06-.25.1-.37,0-.11,0-.16.11-.3.17-.45a.08.08,0,0,1,0-.05,5.91,5.91,0,0,1,.54-1l0,0,.19-.26.07.09c.25.36.52.71.79,1.05l.15.18c.25.31.51.62.78.92l.14.16c.3.32.61.63.92.94l.21.2a24.48,24.48,0,0,0,2.06,1.73l.23.17q.52.39,1.08.75l.18.11c.34.21.68.42,1,.61l.21.12q.57.31,1.17.6l.1.05,0,0-.33.32-.1.09-.39.31-.08.06c-.15.1-.3.2-.46.29l0,0a5.28,5.28,0,0,1-.53.27h0a6.19,6.19,0,0,1-1.76.47h0a4.21,4.21,0,0,1-.62,0A6,6,0,0,1,119.88,53.87Z"/><path class="cls-1" d="M65.19,24.12l.66-.1L66,24c.24,0,.46-.11.69-.18l0,0a8.32,8.32,0,0,0,5.48-5.49h0c.07-.23.13-.46.18-.7l0-.11c0-.22.07-.44.1-.66a1,1,0,0,0,0-.17h0a8.08,8.08,0,0,0,0-.85,8.39,8.39,0,0,0-16.77,0,8.06,8.06,0,0,0,0,.85h0l0,.16a4.92,4.92,0,0,0,.1.67l0,.11c0,.24.11.47.18.7h0a8.3,8.3,0,0,0,5.47,5.49l.06,0c.22.07.45.13.68.18l.13,0,.66.1.17,0a7.55,7.55,0,0,0,.83.05,7.73,7.73,0,0,0,.84-.05Zm.73-2.6a3.45,3.45,0,0,1-.46.12l-.13,0c-.14,0-.28,0-.43.06l-.14,0a5.53,5.53,0,0,1-1.15,0l-.14,0c-.15,0-.29,0-.43-.06l-.13,0a4.05,4.05,0,0,1-.47-.12l0,0a6,6,0,0,1-3.9-3.88.31.31,0,0,1,0-.08,1.21,1.21,0,0,1,0-.18l.13,0c.37-.11.74-.2,1.11-.28l.23-.06c.39-.08.79-.15,1.18-.21l.36-.05c.39,0,.77-.09,1.16-.12l.36,0c.35,0,.71,0,1.07,0h.32q.54,0,1.08,0l.36,0c.39,0,.77.07,1.15.12l.37.05q.58.09,1.17.21l.23.06c.38.08.75.17,1.11.28l.14,0c0,.06,0,.12,0,.18l0,.08A6,6,0,0,1,66,21.5ZM64.77,9.86l.19,0,.37.06.22.05a3.18,3.18,0,0,1,.33.09l.23.07.3.11.22.1.29.13.21.12.27.16.2.13.25.19.18.15.25.22.16.15c.09.09.17.19.25.28a.69.69,0,0,1,.11.13,3.61,3.61,0,0,1,.33.44.41.41,0,0,1,.07.11,3.13,3.13,0,0,1,.22.36l.09.18c0,.1.11.21.15.31l.09.21c0,.11.08.21.11.32a1.87,1.87,0,0,1,.07.22c0,.11.06.21.08.32s0,.16,0,.24,0,.11,0,.16l-.1,0c-.39-.1-.78-.19-1.18-.27-.14,0-.29-.06-.44-.09l-.89-.14-.42-.06q-.57-.08-1.14-.12l-.51,0-.93,0H63.9l-.93,0-.51,0c-.38,0-.77.07-1.15.12-.14,0-.27,0-.41.06l-.89.14-.45.09-1.17.27-.11,0,0-.16a2,2,0,0,1,0-.24c0-.11,0-.21.08-.32a1.87,1.87,0,0,1,.07-.22c0-.11.07-.21.11-.32l.08-.21c0-.1.1-.21.16-.31a1.51,1.51,0,0,1,.09-.18c.07-.13.14-.25.22-.37l.06-.1c.11-.16.22-.3.33-.44l.11-.12c.09-.1.17-.2.26-.29l.15-.15.25-.22.18-.14.26-.2.2-.13.27-.16.21-.11.28-.14.22-.1.31-.11.22-.07.33-.09L63,9.94l.38-.06.19,0a5.63,5.63,0,0,1,.58,0A5.83,5.83,0,0,1,64.77,9.86Z"/><path class="cls-1" d="M37.86,37.68l.12.09c.18.12.35.24.54.35l.11.08.58.31.11.05c.21.1.41.18.63.26l.09,0c.22.08.45.15.68.21l.07,0,.72.15h.07l.75.09h.55A8.4,8.4,0,0,0,51.27,31c0-.25,0-.51,0-.76a1.23,1.23,0,0,1,0-.2c0-.23-.06-.46-.11-.69a.11.11,0,0,0,0,0c-.05-.23-.11-.47-.18-.7l-.06-.18q-.1-.33-.24-.66v0a7.32,7.32,0,0,0-.33-.69.41.41,0,0,0-.05-.09,8.27,8.27,0,0,0-2.63-2.89l0,0c-.22-.14-.44-.28-.67-.41s-.45-.23-.68-.33l-.11,0A7,7,0,0,0,45.4,23l-.11,0c-.2-.06-.41-.11-.61-.15l-.17,0c-.23-.05-.46-.08-.7-.11h-.17a6.45,6.45,0,0,0-.76,0A8.39,8.39,0,0,0,34.5,31a7.87,7.87,0,0,0,0,.84c0,.12,0,.23.05.35s0,.31.07.45.07.3.11.45,0,.22.09.33.11.33.17.49l.09.26c.07.17.15.33.23.5l.11.21a4.76,4.76,0,0,0,.28.49l.11.18a5.85,5.85,0,0,0,.34.48l.11.15c.13.16.26.31.4.46l.11.13.44.43.13.11Zm11-6.11,0,.19c0,.13,0,.26-.06.38a1.42,1.42,0,0,1-.05.22c0,.12,0,.23-.08.34a2,2,0,0,0-.08.22c0,.11-.07.21-.11.31l-.1.22-.14.29-.12.21c-.05.09-.1.18-.16.27s-.09.14-.14.2l-.18.25c-.06.06-.11.13-.16.19l-.21.23-.17.18-.23.21-.18.15-.26.2-.19.13-.3.18-.18.11c-.12.07-.26.13-.39.19l-.11.05a4.76,4.76,0,0,1-.53.19l-.14,0-.41.11-.21,0-.3,0V36.8c0-.43,0-.86.06-1.28v0c0-.42.08-.85.14-1.27,0,0,0-.1,0-.15.06-.4.13-.8.22-1.2,0-.07,0-.14,0-.21.09-.39.18-.78.29-1.16l.06-.21c.12-.39.24-.77.38-1.16,0,0,0-.08,0-.13.14-.39.3-.77.46-1.15l0-.06c.17-.38.35-.76.55-1.13a1.3,1.3,0,0,1,.08-.17c.19-.35.39-.71.6-1l.06-.09a6,6,0,0,1,.72.7,1.07,1.07,0,0,1,.14.16c.08.09.15.19.22.28l.15.23c.06.08.11.18.17.27l.15.28.13.26c0,.1.09.21.13.32l.09.25c0,.12.08.25.11.38l.06.22c0,.15.05.3.07.45a1.13,1.13,0,0,1,0,.18,4.73,4.73,0,0,1,0,.65A5.68,5.68,0,0,1,48.83,31.57ZM42.88,25c.18,0,.36,0,.54,0l.15,0a3.5,3.5,0,0,1,.45.07h.08l.4.1a.3.3,0,0,1,0,.08c-.22.37-.44.75-.64,1.14l-.11.22c-.2.4-.4.8-.58,1.2l-.06.14c-.17.4-.33.81-.48,1.22,0,0,0,.07,0,.11-.15.42-.29.84-.41,1.27a2,2,0,0,0-.07.23c-.12.42-.23.84-.32,1.26,0,.08,0,.16,0,.24-.09.43-.18.87-.24,1.32,0,0,0,.07,0,.1-.06.43-.11.87-.15,1.31,0,.06,0,.11,0,.17,0,.44-.06.89-.07,1.33,0,0,0,.09,0,.14a6.3,6.3,0,0,1-.89-.34h0A5.87,5.87,0,0,1,38.47,35l-.08-.09a3.11,3.11,0,0,1-.23-.28l-.09-.12c-.07-.1-.14-.19-.2-.29l-.08-.13a5.84,5.84,0,0,1-.35-.65l0-.09a1.86,1.86,0,0,1-.1-.25l-.09-.25a2.17,2.17,0,0,1-.07-.24c0-.1-.06-.2-.08-.3s0-.15-.05-.23,0-.23,0-.35l0-.19c0-.18,0-.37,0-.56A6,6,0,0,1,42.88,25Z"/><path class="cls-1" d="M77.76,27.72v0q-.14.33-.24.66a1.21,1.21,0,0,0-.05.18c-.07.23-.14.47-.19.7v0c0,.23-.08.46-.11.69,0,.07,0,.14,0,.2,0,.25,0,.51,0,.76a8.39,8.39,0,0,0,8.38,8.38H86c.26,0,.51-.05.76-.09h.06q.38-.06.72-.15l.08,0c.23-.06.45-.13.67-.21l.1,0c.21-.08.42-.16.63-.26l.1-.05c.2-.1.4-.2.58-.31l.12-.08a6.06,6.06,0,0,0,.53-.35l.13-.09.48-.39.12-.11c.15-.14.3-.28.44-.43l.12-.13a5.58,5.58,0,0,0,.39-.46l.12-.15c.11-.16.23-.31.34-.48l.1-.18c.1-.16.2-.32.29-.49a2,2,0,0,0,.1-.21c.08-.17.16-.33.23-.5s.07-.18.1-.26.12-.32.17-.49.06-.22.08-.33.08-.29.11-.45,0-.3.07-.45l.06-.35c0-.28,0-.56,0-.84a8.39,8.39,0,0,0-8.39-8.38,6.28,6.28,0,0,0-.75,0h-.17c-.24,0-.47.06-.7.11l-.17,0a6,6,0,0,0-.61.15L83,23c-.23.07-.46.16-.68.25l-.11,0c-.23.1-.46.21-.68.33s-.46.27-.67.41l0,0a8.39,8.39,0,0,0-2.64,2.89.41.41,0,0,1,0,.09A7.32,7.32,0,0,0,77.76,27.72Zm1.78,2.61,0-.18c0-.15.05-.3.08-.45l.06-.22a2.38,2.38,0,0,1,.11-.38,2.25,2.25,0,0,1,.08-.24c0-.12.09-.23.14-.34s.08-.17.13-.25a2.49,2.49,0,0,1,.15-.28l.16-.27.16-.23.21-.28L81,27a5.87,5.87,0,0,1,.72-.69l.06.09c.21.35.41.7.59,1l.09.18c.2.37.38.74.55,1.12l0,.07c.16.37.31.76.45,1.14l.06.14c.13.38.26.76.37,1.15l.06.21c.11.38.21.77.29,1.16a1.6,1.6,0,0,1,0,.21c.08.4.16.8.22,1.2a1,1,0,0,0,0,.16c.06.41.1.84.14,1.26v0c0,.42,0,.85,0,1.28,0,0,0,.07,0,.11l-.3,0-.21,0-.41-.11-.14,0a4.76,4.76,0,0,1-.53-.19l-.12-.05-.39-.19-.17-.11a3,3,0,0,1-.3-.18L82,35.83l-.26-.2-.18-.15-.23-.21-.17-.18a2.29,2.29,0,0,1-.21-.23c-.06-.06-.11-.13-.16-.19l-.18-.25a1.43,1.43,0,0,1-.14-.2c-.06-.09-.11-.18-.16-.27a2.25,2.25,0,0,1-.12-.21c0-.1-.1-.19-.14-.29l-.1-.22a2.83,2.83,0,0,1-.11-.31,2,2,0,0,1-.08-.22,3.38,3.38,0,0,1-.08-.34l-.06-.22-.06-.38c0-.06,0-.13,0-.19a5.68,5.68,0,0,1,0-.59C79.51,30.76,79.52,30.55,79.54,30.33ZM91.46,31a5.12,5.12,0,0,1,0,.56,1.23,1.23,0,0,1,0,.19c0,.12,0,.24,0,.35a1.89,1.89,0,0,0,0,.23c0,.1,0,.2-.08.3a2.17,2.17,0,0,1-.07.24c0,.08-.06.17-.1.26l-.09.24-.06.12a4,4,0,0,1-.33.61,1,1,0,0,1-.08.14c-.06.1-.13.19-.2.29l-.09.12a3.22,3.22,0,0,1-.24.28L89.9,35a6.11,6.11,0,0,1-1.83,1.36h0a6.94,6.94,0,0,1-.9.34v-.14c0-.44,0-.89-.07-1.33a1,1,0,0,0,0-.17c0-.44-.08-.88-.15-1.31,0,0,0-.07,0-.1-.07-.45-.15-.89-.24-1.33a1.55,1.55,0,0,1,0-.23c-.1-.42-.2-.84-.32-1.26,0-.08,0-.15-.07-.23-.12-.42-.26-.85-.41-1.27,0,0,0-.07,0-.11-.15-.41-.32-.82-.49-1.22l-.06-.14q-.27-.6-.57-1.2l-.11-.21c-.21-.39-.42-.78-.65-1.16l0-.07.41-.1h.07a3.4,3.4,0,0,1,.46-.07L85,25c.17,0,.35,0,.53,0A6,6,0,0,1,91.46,31Z"/><path class="cls-1" d="M86.59,52.68a5.4,5.4,0,0,0-.09-.58c0-.12-.07-.24-.1-.36s-.08-.32-.13-.47l-.15-.4c-.05-.14-.1-.27-.16-.4s-.13-.28-.2-.42l-.18-.33c-.08-.14-.17-.28-.26-.42s-.13-.2-.2-.3l-.3-.4-.24-.27c-.11-.12-.22-.25-.34-.37l-.32-.3-.3-.27a7.36,7.36,0,0,0-.63-.47l0,0c-.19-.13-.39-.25-.6-.37l-.25-.12-.42-.21-.34-.13L81,45.93l-.37-.12-.38-.09-.37-.08-.45-.07-.31,0a6.85,6.85,0,0,0-.79,0,8.39,8.39,0,0,0-8.38,8.38c0,.25,0,.5,0,.75a1.5,1.5,0,0,0,0,.2c0,.23.06.45.1.68l.06.23c0,.15.07.3.11.45l.09.29c.06.19.13.39.21.58l.12.26c.06.13.12.26.19.39s.08.17.13.25,0,0,0,0c.1.18.21.34.31.5l.13.19.3.4.16.19c.14.17.29.33.44.48l.13.13.39.35.22.18.38.29.32.22.38.23.3.16.35.17.43.18.42.15.3.1c.16,0,.32.09.49.12l.24.06c.21,0,.43.07.64.09l.22,0c.24,0,.49,0,.74,0a8.39,8.39,0,0,0,8.39-8.38c0-.3,0-.6,0-.9A2.93,2.93,0,0,0,86.59,52.68ZM78.3,47.89a5.52,5.52,0,0,1,.71,0l.18,0a4.35,4.35,0,0,1,.52.1l.19,0,.54.17.12.05q.31.13.63.3h0l-.08.12q-.36.52-.75,1h0c-.26.33-.53.65-.81,1L79.4,51c-.28.3-.56.59-.85.87l-.17.17c-.31.29-.62.57-.94.84h0c-.32.27-.66.53-1,.78a1.33,1.33,0,0,1-.19.14c-.33.24-.66.47-1,.69l-.2.13a21,21,0,0,1-2.24,1.21l-.12.05s0,0,0-.05-.07-.22-.1-.32a1.74,1.74,0,0,1,0-.22c0-.1,0-.19-.07-.29s0-.2,0-.3a2,2,0,0,1,0-.24,4.93,4.93,0,0,1,0-.55A6,6,0,0,1,78.3,47.89Zm5.86,7.18a6,6,0,0,1-5.86,4.78,4.3,4.3,0,0,1-.62,0h0a6.28,6.28,0,0,1-1.76-.47h0a5.28,5.28,0,0,1-.53-.27l-.05,0c-.16-.09-.31-.19-.46-.29l-.08-.06c-.13-.1-.26-.2-.38-.31l-.11-.09c-.11-.1-.22-.21-.32-.32l0,0,.11-.05c.39-.19.78-.39,1.16-.6l.21-.12c.35-.19.69-.39,1-.61l.18-.11q.56-.36,1.08-.75l.24-.17c.36-.27.71-.54,1-.83h0l1-.89.22-.2c.31-.31.62-.62.91-.94l.15-.16c.27-.3.53-.61.78-.92l.14-.18c.28-.34.54-.69.8-1.05l.06-.09a2.48,2.48,0,0,1,.19.26l0,0a5.91,5.91,0,0,1,.54,1l0,.05c.06.14.11.3.16.45s0,.1.05.15.07.25.09.38a1.16,1.16,0,0,1,0,.18,2.63,2.63,0,0,1,.06.39.88.88,0,0,1,0,.17,5.12,5.12,0,0,1,0,.56A6,6,0,0,1,84.16,55.07Z"/><path class="cls-1" d="M57.7,57.31l.12-.26.21-.58a2.45,2.45,0,0,0,.08-.29,3.74,3.74,0,0,0,.12-.45,1.89,1.89,0,0,0,.05-.23c0-.23.08-.45.11-.68,0-.07,0-.14,0-.2,0-.25,0-.5,0-.75a8.4,8.4,0,0,0-8.39-8.38,7.09,7.09,0,0,0-.79,0l-.31,0-.45.07-.37.08-.38.09-.37.12-.37.14-.33.13a4.11,4.11,0,0,0-.42.21l-.26.12-.6.37,0,0c-.21.15-.42.3-.62.47h0l-.27.25-.35.32c-.12.12-.22.24-.33.37l-.24.27c-.11.13-.2.27-.3.4l-.21.3c-.09.14-.17.27-.25.42l-.18.33c-.07.14-.14.28-.2.42s-.11.26-.17.4-.1.26-.14.4-.09.31-.14.47l-.09.36c0,.19-.07.38-.1.58s0,.19,0,.29c0,.3,0,.6,0,.9a8.39,8.39,0,0,0,8.38,8.38q.38,0,.75,0l.21,0c.22,0,.44,0,.65-.09l.24-.06.48-.12.31-.1c.14,0,.28-.1.41-.15l.44-.18.34-.17.3-.16.38-.23.33-.22.38-.29.22-.18.38-.35.14-.13.44-.48.16-.2c.1-.12.2-.26.29-.39s.09-.12.13-.19.21-.33.31-.5l0,0c0-.08.09-.17.13-.25S57.64,57.44,57.7,57.31ZM56,53.87a4.93,4.93,0,0,1,0,.55l0,.24c0,.1,0,.2,0,.3s0,.19-.07.29,0,.15,0,.22-.07.21-.1.32a.17.17,0,0,0,0,.05l-.12-.05a21.38,21.38,0,0,1-2.26-1.22l-.18-.11c-.35-.23-.69-.46-1-.7l-.18-.13A21.93,21.93,0,0,1,50,52l-.16-.15c-.29-.29-.58-.59-.86-.89l-.15-.17a22.19,22.19,0,0,1-1.58-2l-.07-.11h0c.2-.11.41-.21.62-.3l.13-.05.54-.17.18,0a4.94,4.94,0,0,1,.53-.1l.18,0a5.49,5.49,0,0,1,.7,0A6,6,0,0,1,56,53.87Zm-11.95,0c0-.19,0-.38,0-.56l0-.17c0-.13,0-.26,0-.39a1.16,1.16,0,0,0,0-.18c0-.13.06-.25.1-.37s0-.11,0-.16.11-.3.17-.45,0,0,0-.05a5.91,5.91,0,0,1,.54-1l0-.06.2-.25.06.09c.26.36.52.71.79,1.05l.15.18c.25.31.51.62.78.92a1.07,1.07,0,0,1,.14.16c.3.32.61.63.92.94l.21.2a24.48,24.48,0,0,0,2.06,1.73l.23.17,1.08.75.18.11,1,.62.2.11q.57.31,1.17.6l.1.05,0,0a3.34,3.34,0,0,1-.33.32l-.1.09a4.08,4.08,0,0,1-.39.31l-.08.06-.45.29,0,0a5.28,5.28,0,0,1-.53.27h0a6.25,6.25,0,0,1-1.77.47h0a4.44,4.44,0,0,1-.63,0,6,6,0,0,1-6-6Z"/><path class="cls-1" d="M50.17,96.2v4.44a8.25,8.25,0,0,0,8.24,8.24h43.67a8.25,8.25,0,0,0,8.24-8.24V96.2A8.25,8.25,0,0,0,102.08,88H58.41A8.25,8.25,0,0,0,50.17,96.2Zm57.74,0v4.44a5.84,5.84,0,0,1-5.83,5.83H58.41a5.84,5.84,0,0,1-5.83-5.83V96.2a5.84,5.84,0,0,1,5.83-5.83h43.67A5.84,5.84,0,0,1,107.91,96.2Z"/></g></g></svg>