<svg xmlns="http://www.w3.org/2000/svg" viewBox="0 0 209.15 248.03"><defs><style>.cls-1{fill:#eee;}</style></defs><title>Asset 4</title><g id="Layer_2" data-name="Layer 2"><g id="Layer_3" data-name="Layer 3"><path class="cls-1" d="M207.94,99.28H186.63a.61.61,0,0,0-.07-.1,1.21,1.21,0,0,0-1.71,0l-.09.1H154.22l-.08-.1a1.2,1.2,0,0,0-1.7,0l-.1.1H119.88l-.08-.1a1.2,1.2,0,0,0-1.7,0l-.1.1H87.46l-.08-.1a1.2,1.2,0,0,0-1.7,0l-.1.1H51.68l-.08-.1a1.2,1.2,0,0,0-1.7,0l-.09.1H18.39l30.25-11,.12.06a1.14,1.14,0,0,0,.51.11,1.22,1.22,0,0,0,1.09-.69s0-.08,0-.12L82.26,76l.12.06a1.16,1.16,0,0,0,.51.12,1.21,1.21,0,0,0,1.09-.7.56.56,0,0,0,0-.12L112.72,65l.12.06a1.3,1.3,0,0,0,.51.11,1.21,1.21,0,0,0,1.09-.7.36.36,0,0,0,0-.11L145,53.2l.12.06a1.17,1.17,0,0,0,.51.11,1.19,1.19,0,0,0,1.09-.69.56.56,0,0,0,0-.12l28.7-10.44.12.05a1.19,1.19,0,0,0,.51.12,1.2,1.2,0,0,0,1.09-.7.56.56,0,0,0,0-.12l20-7.28a1.22,1.22,0,0,0,.72-1.55L186.36.79a1.2,1.2,0,0,0-1.54-.72L101.19,30.51h0L.79,67.05a1.23,1.23,0,0,0-.68.63,1.22,1.22,0,0,0,0,.92l11.27,31a1.21,1.21,0,0,0-.44.92V246.82A1.21,1.21,0,0,0,12.11,248H207.94a1.21,1.21,0,0,0,1.21-1.21V100.48A1.21,1.21,0,0,0,207.94,99.28Zm-1.2,12.36-21.53,21.54H154.27l31.49-31.49h21Zm0,3.41v18.13H188.61Zm-55.88,18.13h-29l31.49-31.49h29Zm-32.41,0H87.51L119,101.69h30.94Zm-34.35,0h-29l31.49-31.49h29Zm-32.41,0H19.31L50.8,101.69H83.18Zm-35.78,0h-2.6V101.69H47.4ZM48.75,85.67,8.39,66.85,38.81,55.78,79.17,74.6ZM82.37,73.43,42,54.61l27.26-9.92,40.36,18.82Zm30.46-11.08L72.47,43.53l29.07-10.59L141.9,51.76ZM145.1,50.6,104.74,31.78,132,21.86l40.35,18.82Zm30.46-11.09L135.2,20.69l29.08-10.58L191.88,23l3.4,9.36Zm15.15-19.73L167.48,9l17-6.2ZM5.19,68,45.55,86.83l-32,11.66L2.75,68.9Zm8.12,177.61v-110H206.74v110Z"/></g></g></svg>