<svg xmlns="http://www.w3.org/2000/svg" viewBox="0 0 192.57 248.03"><defs><style>.cls-1{fill:#eee;}</style></defs><title>Asset 1</title><g id="Layer_2" data-name="Layer 2"><g id="Layer_1-2" data-name="Layer 1"><path class="cls-1" d="M3.93,124.44l76.28,53.41L3.93,231.26A9.22,9.22,0,0,0,9.23,248h0a9.17,9.17,0,0,0,5.28-1.67L96.28,189.1l81.78,57.26a9.22,9.22,0,1,0,10.57-15.1l-76.27-53.41,76.27-53.41a9.14,9.14,0,0,0,3.79-5.94,6.88,6.88,0,0,0,.15-1.43V7.05a7.06,7.06,0,0,0-7.06-7h-4.33a7,7,0,0,0-6.94,5.85H18.33A7,7,0,0,0,11.39,0H7.05A7.06,7.06,0,0,0,0,7.05v110a7.07,7.07,0,0,0,.14,1.4A9.16,9.16,0,0,0,3.93,124.44Zm179.42-1.53a6.82,6.82,0,1,1,6.81-6.81A6.83,6.83,0,0,1,183.35,122.91ZM96.28,166.59,25.13,116.77a254.47,254.47,0,0,0,42.52,9.67,239.86,239.86,0,0,0,32.95,2.33q9.2,0,18.1-.76a182.61,182.61,0,0,0,47.35-10.27Zm77.85-54.67c-38.72,16.82-79,15.9-106.08,12.15a239.09,239.09,0,0,1-49.61-12.18V90.73H174.13ZM16,116.1a6.81,6.81,0,1,1-6.81-6.82A6.82,6.82,0,0,1,16,116.1Zm66.28,60.28L9.37,125.31a9.22,9.22,0,0,0,9.07-9.21,8.35,8.35,0,0,0-.08-1.13l75.83,53.09-3.61,2.52Zm-69.18,68a6.81,6.81,0,0,1-3.9,1.23h0a6.81,6.81,0,0,1-6.72-8,6.76,6.76,0,0,1,2.8-4.4l86.52-60.58,5.14-3.6h0L174.2,115a10.39,10.39,0,0,0-.07,1.13,9.22,9.22,0,0,0,9.06,9.21l-73.62,51.55h0l-11.95,8.36Zm174.12-11.16a6.81,6.81,0,0,1-7.81,11.16L98.38,187.63l11.88-8.31ZM181.18,2.41h4.33a4.65,4.65,0,0,1,4.65,4.64V109.91a9.18,9.18,0,0,0-13.63,0V7.05A4.65,4.65,0,0,1,181.18,2.41Zm-7.05,85.91H18.44V8.26H174.13ZM2.41,7.05A4.64,4.64,0,0,1,7.05,2.41h4.34A4.64,4.64,0,0,1,16,7.05V109.91a9.17,9.17,0,0,0-13.62,0Z"/></g></g></svg>