<svg xmlns="http://www.w3.org/2000/svg" viewBox="0 0 179.92 748.87"><defs><style>.cls-1{fill:#eee;}</style></defs><title>Asset 6</title><g id="Layer_2" data-name="Layer 2"><g id="Layer_2-2" data-name="Layer 2"><path class="cls-1" d="M26,5.24H5.83a1.2,1.2,0,0,0-1.2,1.2v14a1.2,1.2,0,0,0,1.2,1.2H26a1.21,1.21,0,0,0,1.21-1.2v-14A1.2,1.2,0,0,0,26,5.24Zm-1.2,14H7V7.64H24.8Z"/><path class="cls-1" d="M26,25.41H5.83a1.21,1.21,0,0,0-1.21,1.2v14a1.21,1.21,0,0,0,1.21,1.2H26a1.2,1.2,0,0,0,1.2-1.2v-14A1.2,1.2,0,0,0,26,25.41Zm-1.2,14H7V27.82H24.8Z"/><path class="cls-1" d="M26,45.58H5.82a1.2,1.2,0,0,0-1.2,1.2v14A1.21,1.21,0,0,0,5.82,62H26a1.21,1.21,0,0,0,1.2-1.21v-14A1.2,1.2,0,0,0,26,45.58Zm-1.21,14H7V48H24.79Z"/><path class="cls-1" d="M26,65.75H5.82A1.2,1.2,0,0,0,4.62,67V81a1.2,1.2,0,0,0,1.2,1.21H26A1.21,1.21,0,0,0,27.2,81V67A1.21,1.21,0,0,0,26,65.75Zm-1.2,14H7V68.16H24.79Z"/><path class="cls-1" d="M26,85.92H5.82a1.21,1.21,0,0,0-1.21,1.21v14a1.21,1.21,0,0,0,1.21,1.2H26a1.2,1.2,0,0,0,1.2-1.2v-14A1.21,1.21,0,0,0,26,85.92Zm-1.21,14H7V88.33H24.78Z"/><path class="cls-1" d="M26,106.1H5.81a1.2,1.2,0,0,0-1.2,1.2v14a1.2,1.2,0,0,0,1.2,1.2H26a1.21,1.21,0,0,0,1.21-1.2v-14A1.21,1.21,0,0,0,26,106.1Zm-1.2,14H7V108.5H24.78Z"/><path class="cls-1" d="M26,126.27H5.81a1.21,1.21,0,0,0-1.21,1.2v14a1.2,1.2,0,0,0,1.21,1.2H26a1.2,1.2,0,0,0,1.2-1.2v-14A1.2,1.2,0,0,0,26,126.27Zm-1.2,14H7v-11.6H24.78Z"/><path class="cls-1" d="M26,146.44H5.8a1.2,1.2,0,0,0-1.2,1.2v14a1.21,1.21,0,0,0,1.2,1.21H26a1.21,1.21,0,0,0,1.21-1.21v-14A1.21,1.21,0,0,0,26,146.44Zm-1.2,14H7v-11.6H24.77Z"/><path class="cls-1" d="M26,166.61H5.8a1.2,1.2,0,0,0-1.2,1.21v14A1.2,1.2,0,0,0,5.8,183H26a1.2,1.2,0,0,0,1.2-1.21v-14A1.2,1.2,0,0,0,26,166.61Zm-1.2,14H7V169H24.77Z"/><path class="cls-1" d="M26,186.79H5.79a1.2,1.2,0,0,0-1.2,1.2v14a1.2,1.2,0,0,0,1.2,1.2H26a1.2,1.2,0,0,0,1.2-1.2V188A1.2,1.2,0,0,0,26,186.79Zm-1.21,14H7v-11.6H24.76Z"/><path class="cls-1" d="M26,207H5.79a1.2,1.2,0,0,0-1.2,1.2v14a1.2,1.2,0,0,0,1.2,1.2H26a1.21,1.21,0,0,0,1.21-1.2v-14A1.21,1.21,0,0,0,26,207Zm-1.2,14H7V209.36H24.76Z"/><path class="cls-1" d="M26,227.13H5.79a1.21,1.21,0,0,0-1.21,1.2v14a1.21,1.21,0,0,0,1.21,1.21H26a1.21,1.21,0,0,0,1.2-1.21v-14A1.2,1.2,0,0,0,26,227.13Zm-1.21,14H7v-11.6H24.75Z"/><path class="cls-1" d="M177.93,0H1.2A1.2,1.2,0,0,0,0,1.2V246.82A1.21,1.21,0,0,0,1.2,248H177.93a1.21,1.21,0,0,0,1.21-1.21V1.2A1.21,1.21,0,0,0,177.93,0ZM31.83,84.41H147.31v79.4H31.83ZM147.31,82H31.83V2.41H147.31ZM31.83,166.22H147.31v79.4H31.83ZM2.41,2.41h27V245.62h-27ZM176.73,245.62h-27V2.41h27Z"/><path class="cls-1" d="M153.14,21.65h20.17a1.21,1.21,0,0,0,1.21-1.2v-14a1.2,1.2,0,0,0-1.21-1.2H153.14a1.2,1.2,0,0,0-1.2,1.2v14A1.2,1.2,0,0,0,153.14,21.65Zm1.2-14h17.77v11.6H154.34Z"/><path class="cls-1" d="M153.14,41.82h20.17a1.2,1.2,0,0,0,1.2-1.2v-14a1.2,1.2,0,0,0-1.2-1.2H153.14a1.21,1.21,0,0,0-1.21,1.2v14A1.21,1.21,0,0,0,153.14,41.82Zm1.2-14h17.77v11.6H154.34Z"/><path class="cls-1" d="M153.13,62h20.18a1.21,1.21,0,0,0,1.2-1.21v-14a1.2,1.2,0,0,0-1.2-1.2H153.13a1.2,1.2,0,0,0-1.2,1.2v14A1.21,1.21,0,0,0,153.13,62Zm1.21-14H172.1v11.6H154.34Z"/><path class="cls-1" d="M153.13,82.17H173.3A1.2,1.2,0,0,0,174.5,81V67a1.2,1.2,0,0,0-1.2-1.21H153.13a1.2,1.2,0,0,0-1.2,1.21V81A1.2,1.2,0,0,0,153.13,82.17Zm1.2-14H172.1v11.6H154.33Z"/><path class="cls-1" d="M153.12,102.34H173.3a1.2,1.2,0,0,0,1.2-1.2v-14a1.21,1.21,0,0,0-1.2-1.21H153.12a1.21,1.21,0,0,0-1.2,1.21v14A1.2,1.2,0,0,0,153.12,102.34Zm1.21-14h17.76v11.6H154.33Z"/><path class="cls-1" d="M153.12,122.51h20.17a1.21,1.21,0,0,0,1.21-1.2v-14a1.21,1.21,0,0,0-1.21-1.2H153.12a1.2,1.2,0,0,0-1.2,1.2v14A1.2,1.2,0,0,0,153.12,122.51Zm1.2-14h17.77v11.6H154.32Z"/><path class="cls-1" d="M153.12,142.68h20.17a1.2,1.2,0,0,0,1.2-1.2v-14a1.2,1.2,0,0,0-1.2-1.2H153.12a1.21,1.21,0,0,0-1.21,1.2v14A1.2,1.2,0,0,0,153.12,142.68Zm1.2-14h17.76v11.6H154.32Z"/><path class="cls-1" d="M153.11,162.86h20.17a1.21,1.21,0,0,0,1.21-1.21v-14a1.21,1.21,0,0,0-1.21-1.2H153.11a1.2,1.2,0,0,0-1.2,1.2v14A1.21,1.21,0,0,0,153.11,162.86Zm1.21-14h17.76v11.6H154.32Z"/><path class="cls-1" d="M153.11,183h20.17a1.21,1.21,0,0,0,1.2-1.21v-14a1.21,1.21,0,0,0-1.2-1.21H153.11a1.21,1.21,0,0,0-1.21,1.21v14A1.21,1.21,0,0,0,153.11,183Zm1.2-14h17.77v11.6H154.31Z"/><path class="cls-1" d="M153.1,203.2h20.18a1.2,1.2,0,0,0,1.2-1.2V188a1.2,1.2,0,0,0-1.2-1.2H153.1a1.2,1.2,0,0,0-1.2,1.2v14A1.2,1.2,0,0,0,153.1,203.2Zm1.21-14h17.76v11.6H154.31Z"/><path class="cls-1" d="M153.1,223.37h20.17a1.21,1.21,0,0,0,1.21-1.2v-14a1.21,1.21,0,0,0-1.21-1.2H153.1a1.2,1.2,0,0,0-1.2,1.2v14A1.2,1.2,0,0,0,153.1,223.37Zm1.2-14h17.77V221H154.3Z"/><path class="cls-1" d="M153.1,243.55h20.17a1.21,1.21,0,0,0,1.2-1.21v-14a1.2,1.2,0,0,0-1.2-1.2H153.1a1.21,1.21,0,0,0-1.21,1.2v14A1.21,1.21,0,0,0,153.1,243.55Zm1.2-14h17.76v11.6H154.3Z"/><path class="cls-1" d="M132.25,168H47.51a13.39,13.39,0,0,0-13.37,13.38v49.9a13.39,13.39,0,0,0,13.37,13.38h84.74a13.39,13.39,0,0,0,13.38-13.38v-49.9A13.39,13.39,0,0,0,132.25,168Zm11,63.28a11,11,0,0,1-11,11H47.51a11,11,0,0,1-11-11v-49.9a11,11,0,0,1,11-11h84.74a11,11,0,0,1,11,11Z"/><path class="cls-1" d="M132.25,85.69H47.51A13.39,13.39,0,0,0,34.14,99.06V149a13.39,13.39,0,0,0,13.37,13.37h84.74A13.39,13.39,0,0,0,145.63,149V99.06A13.39,13.39,0,0,0,132.25,85.69Zm11,63.28a11,11,0,0,1-11,11H47.51a11,11,0,0,1-11-11V99.06a11,11,0,0,1,11-11h84.74a11,11,0,0,1,11,11Z"/><path class="cls-1" d="M47.51,80.49h84.74a13.39,13.39,0,0,0,13.38-13.37V17.21A13.38,13.38,0,0,0,132.25,3.84H47.51A13.38,13.38,0,0,0,34.14,17.21V67.12A13.39,13.39,0,0,0,47.51,80.49Zm-11-63.28a11,11,0,0,1,11-11h84.74a11,11,0,0,1,11,11V67.12a11,11,0,0,1-11,11H47.51a11,11,0,0,1-11-11Z"/><path class="cls-1" d="M26.32,255.44H6.15a1.21,1.21,0,0,0-1.21,1.2v14a1.21,1.21,0,0,0,1.21,1.21H26.32a1.21,1.21,0,0,0,1.2-1.21v-14A1.2,1.2,0,0,0,26.32,255.44Zm-1.21,14H7.35v-11.6H25.11Z"/><path class="cls-1" d="M26.31,275.61H6.14a1.21,1.21,0,0,0-1.2,1.21v14A1.21,1.21,0,0,0,6.14,292H26.31a1.21,1.21,0,0,0,1.21-1.21v-14A1.21,1.21,0,0,0,26.31,275.61Zm-1.2,14H7.35V278H25.11Z"/><path class="cls-1" d="M26.31,295.78H6.14A1.21,1.21,0,0,0,4.93,297v14a1.21,1.21,0,0,0,1.21,1.2H26.31a1.2,1.2,0,0,0,1.2-1.2V297A1.21,1.21,0,0,0,26.31,295.78Zm-1.2,14H7.34v-11.6H25.11Z"/><path class="cls-1" d="M26.31,316H6.13a1.2,1.2,0,0,0-1.2,1.2v14a1.2,1.2,0,0,0,1.2,1.2H26.31a1.2,1.2,0,0,0,1.2-1.2v-14A1.2,1.2,0,0,0,26.31,316ZM25.1,330H7.34V318.36H25.1Z"/><path class="cls-1" d="M26.3,336.13H6.13a1.2,1.2,0,0,0-1.2,1.2v14a1.19,1.19,0,0,0,1.2,1.2H26.3a1.19,1.19,0,0,0,1.2-1.2v-14A1.2,1.2,0,0,0,26.3,336.13Zm-1.2,14H7.33v-11.6H25.1Z"/><path class="cls-1" d="M26.3,356.3H6.13a1.21,1.21,0,0,0-1.21,1.2v14a1.21,1.21,0,0,0,1.21,1.21H26.3a1.21,1.21,0,0,0,1.2-1.21v-14A1.2,1.2,0,0,0,26.3,356.3Zm-1.21,14H7.33v-11.6H25.09Z"/><path class="cls-1" d="M26.29,376.47H6.12a1.21,1.21,0,0,0-1.2,1.21v14a1.2,1.2,0,0,0,1.2,1.2H26.29a1.21,1.21,0,0,0,1.21-1.2v-14A1.21,1.21,0,0,0,26.29,376.47Zm-1.2,14H7.32v-11.6H25.09Z"/><path class="cls-1" d="M26.29,396.65H6.12a1.2,1.2,0,0,0-1.21,1.2v14a1.21,1.21,0,0,0,1.21,1.2H26.29a1.2,1.2,0,0,0,1.2-1.2v-14A1.2,1.2,0,0,0,26.29,396.65Zm-1.2,14H7.32v-11.6H25.09Z"/><path class="cls-1" d="M26.28,416.82H6.11a1.2,1.2,0,0,0-1.2,1.2v14a1.2,1.2,0,0,0,1.2,1.2H26.28a1.21,1.21,0,0,0,1.21-1.2V418A1.21,1.21,0,0,0,26.28,416.82Zm-1.2,14H7.32V419.22H25.08Z"/><path class="cls-1" d="M26.28,437H6.11a1.21,1.21,0,0,0-1.21,1.2v14a1.21,1.21,0,0,0,1.21,1.21H26.28a1.2,1.2,0,0,0,1.2-1.21v-14A1.2,1.2,0,0,0,26.28,437Zm-1.2,14H7.31V439.4H25.08Z"/><path class="cls-1" d="M26.28,457.16H6.1a1.21,1.21,0,0,0-1.2,1.21v14a1.21,1.21,0,0,0,1.2,1.21H26.28a1.21,1.21,0,0,0,1.2-1.21v-14A1.21,1.21,0,0,0,26.28,457.16Zm-1.21,14H7.31v-11.6H25.07Z"/><path class="cls-1" d="M26.27,477.33H6.1a1.21,1.21,0,0,0-1.2,1.21v14a1.2,1.2,0,0,0,1.2,1.2H26.27a1.21,1.21,0,0,0,1.21-1.2v-14A1.21,1.21,0,0,0,26.27,477.33Zm-1.2,14H7.3v-11.6H25.07Z"/><path class="cls-1" d="M178.25,250.2H1.52a1.21,1.21,0,0,0-1.21,1.21V497a1.21,1.21,0,0,0,1.21,1.2H178.25a1.2,1.2,0,0,0,1.2-1.2V251.41A1.21,1.21,0,0,0,178.25,250.2ZM32.14,334.61H147.62V414H32.14Zm115.48-2.4H32.14v-79.6H147.62ZM32.14,416.42H147.62v79.41H32.14ZM2.72,252.61h27V495.83h-27ZM177,495.83H150V252.61h27Z"/><path class="cls-1" d="M153.46,271.86h20.17a1.21,1.21,0,0,0,1.2-1.21v-14a1.2,1.2,0,0,0-1.2-1.2H153.46a1.21,1.21,0,0,0-1.21,1.2v14A1.21,1.21,0,0,0,153.46,271.86Zm1.2-14h17.76v11.6H154.66Z"/><path class="cls-1" d="M153.45,292h20.17a1.21,1.21,0,0,0,1.21-1.21v-14a1.21,1.21,0,0,0-1.21-1.21H153.45a1.21,1.21,0,0,0-1.2,1.21v14A1.21,1.21,0,0,0,153.45,292Zm1.2-14h17.77v11.6H154.65Z"/><path class="cls-1" d="M153.45,312.2h20.17a1.2,1.2,0,0,0,1.2-1.2V297a1.21,1.21,0,0,0-1.2-1.21H153.45a1.21,1.21,0,0,0-1.21,1.21v14A1.21,1.21,0,0,0,153.45,312.2Zm1.2-14h17.77v11.6H154.65Z"/><path class="cls-1" d="M153.44,332.37h20.18a1.2,1.2,0,0,0,1.2-1.2v-14a1.2,1.2,0,0,0-1.2-1.2H153.44a1.2,1.2,0,0,0-1.2,1.2v14A1.2,1.2,0,0,0,153.44,332.37Zm1.21-14h17.76V330H154.65Z"/><path class="cls-1" d="M153.44,352.54h20.17a1.19,1.19,0,0,0,1.2-1.2v-14a1.2,1.2,0,0,0-1.2-1.2H153.44a1.2,1.2,0,0,0-1.2,1.2v14A1.19,1.19,0,0,0,153.44,352.54Zm1.2-14h17.77v11.6H154.64Z"/><path class="cls-1" d="M153.43,372.72h20.18a1.21,1.21,0,0,0,1.2-1.21v-14a1.2,1.2,0,0,0-1.2-1.2H153.43a1.2,1.2,0,0,0-1.2,1.2v14A1.21,1.21,0,0,0,153.43,372.72Zm1.21-14H172.4v11.6H154.64Z"/><path class="cls-1" d="M153.43,392.89H173.6a1.21,1.21,0,0,0,1.21-1.2v-14a1.21,1.21,0,0,0-1.21-1.21H153.43a1.21,1.21,0,0,0-1.2,1.21v14A1.2,1.2,0,0,0,153.43,392.89Zm1.2-14H172.4v11.6H154.63Z"/><path class="cls-1" d="M153.43,413.06H173.6a1.2,1.2,0,0,0,1.2-1.2v-14a1.2,1.2,0,0,0-1.2-1.2H153.43a1.2,1.2,0,0,0-1.21,1.2v14A1.21,1.21,0,0,0,153.43,413.06Zm1.2-14h17.76v11.6H154.63Z"/><path class="cls-1" d="M153.42,433.23h20.17a1.21,1.21,0,0,0,1.21-1.2V418a1.21,1.21,0,0,0-1.21-1.2H153.42a1.2,1.2,0,0,0-1.2,1.2v14A1.2,1.2,0,0,0,153.42,433.23Zm1.21-14h17.76v11.61H154.63Z"/><path class="cls-1" d="M153.42,453.41h20.17a1.21,1.21,0,0,0,1.2-1.21v-14a1.2,1.2,0,0,0-1.2-1.2H153.42a1.21,1.21,0,0,0-1.21,1.2v14A1.21,1.21,0,0,0,153.42,453.41Zm1.2-14h17.77V451H154.62Z"/><path class="cls-1" d="M153.41,473.58h20.18a1.21,1.21,0,0,0,1.2-1.21v-14a1.21,1.21,0,0,0-1.2-1.21H153.41a1.21,1.21,0,0,0-1.2,1.21v14A1.21,1.21,0,0,0,153.41,473.58Zm1.21-14h17.76v11.6H154.62Z"/><path class="cls-1" d="M153.41,493.75h20.17a1.21,1.21,0,0,0,1.21-1.2v-14a1.21,1.21,0,0,0-1.21-1.21H153.41a1.2,1.2,0,0,0-1.2,1.21v14A1.2,1.2,0,0,0,153.41,493.75Zm1.2-14h17.77v11.6H154.61Z"/><path class="cls-1" d="M132.57,418.22H47.82a13.39,13.39,0,0,0-13.37,13.37V481.5a13.39,13.39,0,0,0,13.37,13.37h84.75a13.39,13.39,0,0,0,13.37-13.37V431.59A13.39,13.39,0,0,0,132.57,418.22Zm11,63.28a11,11,0,0,1-11,11H47.82a11,11,0,0,1-11-11V431.59a11,11,0,0,1,11-11h84.75a11,11,0,0,1,11,11Z"/><path class="cls-1" d="M132.57,335.89H47.82a13.39,13.39,0,0,0-13.37,13.37v49.91a13.38,13.38,0,0,0,13.37,13.37h84.75a13.38,13.38,0,0,0,13.37-13.37V349.26A13.39,13.39,0,0,0,132.57,335.89Zm11,63.28a11,11,0,0,1-11,11H47.82a11,11,0,0,1-11-11V349.26a11,11,0,0,1,11-11h84.75a11,11,0,0,1,11,11Z"/><path class="cls-1" d="M47.82,330.69h84.75a13.39,13.39,0,0,0,13.37-13.37V267.41A13.39,13.39,0,0,0,132.57,254H47.82a13.39,13.39,0,0,0-13.37,13.37v49.91A13.39,13.39,0,0,0,47.82,330.69Zm-11-63.28a11,11,0,0,1,11-11h84.75a11,11,0,0,1,11,11v49.91a11,11,0,0,1-11,11H47.82a11,11,0,0,1-11-11Z"/><path class="cls-1" d="M26.48,502.7H6.3a1.2,1.2,0,0,0-1.2,1.2v14a1.2,1.2,0,0,0,1.2,1.2H26.48a1.2,1.2,0,0,0,1.2-1.2v-14A1.2,1.2,0,0,0,26.48,502.7Zm-1.21,14H7.51V505.1H25.27Z"/><path class="cls-1" d="M26.47,522.87H6.3a1.2,1.2,0,0,0-1.2,1.2v14a1.19,1.19,0,0,0,1.2,1.2H26.47a1.19,1.19,0,0,0,1.2-1.2v-14A1.2,1.2,0,0,0,26.47,522.87Zm-1.2,14H7.5v-11.6H25.27Z"/><path class="cls-1" d="M26.47,543H6.29a1.2,1.2,0,0,0-1.2,1.2v14a1.21,1.21,0,0,0,1.2,1.21H26.47a1.21,1.21,0,0,0,1.2-1.21v-14A1.2,1.2,0,0,0,26.47,543Zm-1.21,14H7.5v-11.6H25.26Z"/><path class="cls-1" d="M26.46,563.21H6.29a1.21,1.21,0,0,0-1.2,1.21v14a1.2,1.2,0,0,0,1.2,1.2H26.46a1.21,1.21,0,0,0,1.21-1.2v-14A1.21,1.21,0,0,0,26.46,563.21Zm-1.2,14H7.49v-11.6H25.26Z"/><path class="cls-1" d="M26.46,583.39H6.29a1.2,1.2,0,0,0-1.21,1.2v14a1.21,1.21,0,0,0,1.21,1.2H26.46a1.2,1.2,0,0,0,1.2-1.2v-14A1.2,1.2,0,0,0,26.46,583.39Zm-1.21,14H7.49v-11.6H25.25Z"/><path class="cls-1" d="M26.45,603.56H6.28a1.2,1.2,0,0,0-1.2,1.2v14a1.2,1.2,0,0,0,1.2,1.2H26.45a1.21,1.21,0,0,0,1.21-1.2v-14A1.21,1.21,0,0,0,26.45,603.56Zm-1.2,14H7.49V606H25.25Z"/><path class="cls-1" d="M26.45,623.73H6.28a1.21,1.21,0,0,0-1.21,1.2v14a1.21,1.21,0,0,0,1.21,1.21H26.45a1.21,1.21,0,0,0,1.2-1.21v-14A1.2,1.2,0,0,0,26.45,623.73Zm-1.2,14H7.48v-11.6H25.25Z"/><path class="cls-1" d="M26.45,643.9H6.27a1.21,1.21,0,0,0-1.2,1.21v14a1.21,1.21,0,0,0,1.2,1.21H26.45a1.21,1.21,0,0,0,1.2-1.21v-14A1.21,1.21,0,0,0,26.45,643.9Zm-1.21,14H7.48v-11.6H25.24Z"/><path class="cls-1" d="M26.44,664.07H6.27a1.2,1.2,0,0,0-1.2,1.21v14a1.2,1.2,0,0,0,1.2,1.2H26.44a1.21,1.21,0,0,0,1.21-1.2v-14A1.21,1.21,0,0,0,26.44,664.07Zm-1.2,14H7.47v-11.6H25.24Z"/><path class="cls-1" d="M26.44,684.25H6.27a1.21,1.21,0,0,0-1.21,1.2v14a1.21,1.21,0,0,0,1.21,1.2H26.44a1.2,1.2,0,0,0,1.2-1.2v-14A1.2,1.2,0,0,0,26.44,684.25Zm-1.21,14H7.47v-11.6H25.23Z"/><path class="cls-1" d="M26.43,704.42H6.26a1.2,1.2,0,0,0-1.2,1.2v14a1.2,1.2,0,0,0,1.2,1.2H26.43a1.2,1.2,0,0,0,1.21-1.2v-14A1.21,1.21,0,0,0,26.43,704.42Zm-1.2,14H7.46v-11.6H25.23Z"/><path class="cls-1" d="M26.43,724.59H6.26a1.21,1.21,0,0,0-1.21,1.2v14A1.21,1.21,0,0,0,6.26,741H26.43a1.21,1.21,0,0,0,1.2-1.21v-14A1.2,1.2,0,0,0,26.43,724.59Zm-1.2,14H7.46V727H25.23Z"/><path class="cls-1" d="M178.4,497.46H1.67a1.2,1.2,0,0,0-1.2,1.2V744.29a1.2,1.2,0,0,0,1.2,1.2H178.4a1.21,1.21,0,0,0,1.21-1.2V498.66A1.21,1.21,0,0,0,178.4,497.46ZM32.3,581.87H147.78v79.4H32.3Zm115.48-2.41H32.3V499.87H147.78ZM32.3,663.68H147.78v79.4H32.3ZM2.88,499.87h27V743.08h-27ZM177.2,743.08h-27V499.87h27Z"/><path class="cls-1" d="M153.61,519.11h20.17a1.21,1.21,0,0,0,1.21-1.2v-14a1.21,1.21,0,0,0-1.21-1.2H153.61a1.2,1.2,0,0,0-1.2,1.2v14A1.2,1.2,0,0,0,153.61,519.11Zm1.21-14h17.76v11.61H154.82Z"/><path class="cls-1" d="M153.61,539.28h20.17a1.19,1.19,0,0,0,1.2-1.2v-14a1.2,1.2,0,0,0-1.2-1.2H153.61a1.21,1.21,0,0,0-1.21,1.2v14A1.2,1.2,0,0,0,153.61,539.28Zm1.2-14h17.77v11.6H154.81Z"/><path class="cls-1" d="M153.6,559.46h20.18a1.21,1.21,0,0,0,1.2-1.21v-14a1.2,1.2,0,0,0-1.2-1.2H153.6a1.2,1.2,0,0,0-1.2,1.2v14A1.21,1.21,0,0,0,153.6,559.46Zm1.21-14h17.76v11.6H154.81Z"/><path class="cls-1" d="M153.6,579.63h20.17a1.21,1.21,0,0,0,1.21-1.2v-14a1.21,1.21,0,0,0-1.21-1.21H153.6a1.21,1.21,0,0,0-1.2,1.21v14A1.2,1.2,0,0,0,153.6,579.63Zm1.2-14h17.77v11.6H154.8Z"/><path class="cls-1" d="M153.6,599.8h20.17a1.2,1.2,0,0,0,1.2-1.2v-14a1.2,1.2,0,0,0-1.2-1.2H153.6a1.2,1.2,0,0,0-1.21,1.2v14A1.21,1.21,0,0,0,153.6,599.8Zm1.2-14h17.76v11.6H154.8Z"/><path class="cls-1" d="M153.59,620h20.17a1.21,1.21,0,0,0,1.21-1.2v-14a1.21,1.21,0,0,0-1.21-1.2H153.59a1.2,1.2,0,0,0-1.2,1.2v14A1.2,1.2,0,0,0,153.59,620Zm1.2-14h17.77v11.61H154.79Z"/><path class="cls-1" d="M153.59,640.15h20.17a1.21,1.21,0,0,0,1.2-1.21v-14a1.2,1.2,0,0,0-1.2-1.2H153.59a1.21,1.21,0,0,0-1.21,1.2v14A1.21,1.21,0,0,0,153.59,640.15Zm1.2-14h17.77v11.6H154.79Z"/><path class="cls-1" d="M153.58,660.32h20.18a1.21,1.21,0,0,0,1.2-1.21v-14a1.21,1.21,0,0,0-1.2-1.21H153.58a1.21,1.21,0,0,0-1.2,1.21v14A1.21,1.21,0,0,0,153.58,660.32Zm1.21-14h17.76v11.6H154.79Z"/><path class="cls-1" d="M153.58,680.49h20.17a1.2,1.2,0,0,0,1.2-1.2v-14a1.2,1.2,0,0,0-1.2-1.21H153.58a1.2,1.2,0,0,0-1.2,1.21v14A1.2,1.2,0,0,0,153.58,680.49Zm1.2-14h17.77v11.6H154.78Z"/><path class="cls-1" d="M153.57,700.66h20.18a1.2,1.2,0,0,0,1.2-1.2v-14a1.2,1.2,0,0,0-1.2-1.2H153.57a1.2,1.2,0,0,0-1.2,1.2v14A1.2,1.2,0,0,0,153.57,700.66Zm1.21-14h17.76v11.6H154.78Z"/><path class="cls-1" d="M153.57,720.83h20.17a1.2,1.2,0,0,0,1.21-1.2v-14a1.21,1.21,0,0,0-1.21-1.2H153.57a1.2,1.2,0,0,0-1.2,1.2v14A1.2,1.2,0,0,0,153.57,720.83Zm1.2-14h17.77v11.6H154.77Z"/><path class="cls-1" d="M153.57,741h20.17a1.21,1.21,0,0,0,1.2-1.21v-14a1.2,1.2,0,0,0-1.2-1.2H153.57a1.21,1.21,0,0,0-1.21,1.2v14A1.21,1.21,0,0,0,153.57,741Zm1.2-14h17.77v11.6H154.77Z"/><path class="cls-1" d="M132.73,665.47H48a13.39,13.39,0,0,0-13.37,13.38v49.91A13.39,13.39,0,0,0,48,742.13h84.75a13.39,13.39,0,0,0,13.37-13.37V678.85A13.39,13.39,0,0,0,132.73,665.47Zm11,63.29a11,11,0,0,1-11,11H48a11,11,0,0,1-11-11V678.85a11,11,0,0,1,11-11h84.75a11,11,0,0,1,11,11Z"/><path class="cls-1" d="M132.73,583.15H48a13.39,13.39,0,0,0-13.37,13.37v49.91A13.39,13.39,0,0,0,48,659.8h84.75a13.39,13.39,0,0,0,13.37-13.37V596.52A13.39,13.39,0,0,0,132.73,583.15Zm11,63.28a11,11,0,0,1-11,11H48a11,11,0,0,1-11-11V596.52a11,11,0,0,1,11-11h84.75a11,11,0,0,1,11,11Z"/><path class="cls-1" d="M48,578h84.75a13.39,13.39,0,0,0,13.37-13.37V514.67a13.38,13.38,0,0,0-13.37-13.37H48a13.38,13.38,0,0,0-13.37,13.37v49.91A13.39,13.39,0,0,0,48,578ZM37,514.67a11,11,0,0,1,11-11h84.75a11,11,0,0,1,11,11v49.91a11,11,0,0,1-11,11H48a11,11,0,0,1-11-11Z"/><path class="cls-1" d="M179.92,748.87a1.2,1.2,0,0,0-1.2-1.2H2a1.19,1.19,0,0,0-1.2,1.2"/></g></g></svg>