<?xml version="1.0" encoding="iso-8859-1"?>
<!-- Generator: Adobe Illustrator 19.0.0, SVG Export Plug-In . SVG Version: 6.00 Build 0)  -->
<svg version="1.1" id="Layer_1" xmlns="http://www.w3.org/2000/svg" xmlns:xlink="http://www.w3.org/1999/xlink" x="0px" y="0px"
	 viewBox="0 0 512 512" style="enable-background:new 0 0 512 512;" xml:space="preserve">
<g>
	<path style="fill:#0853A4;" d="M375.309,161.383c0,2.976-2.437,5.41-5.415,5.41H355.6c-2.978,0-5.415-2.435-5.415-5.41V5.41
		c0-2.976,2.437-5.41,5.415-5.41h14.294c2.978,0,5.415,2.435,5.415,5.41V161.383z"/>
	<path style="fill:#0853A4;" d="M283.342,420.679l7.367,85.929c0.255,2.964,2.899,5.391,5.876,5.391h132.324
		c2.978,0,5.622-2.426,5.875-5.391l18.771-218.942l-3.204-0.32L286.302,415.869L283.342,420.679z"/>
	<path style="fill:#0853A4;" d="M459.258,221.136l2.81-32.769c0.254-2.964-1.975-5.39-4.953-5.39H268.377
		c-2.978,0-5.206,2.425-4.952,5.39l14.928,174.132l2.724,0.08L456.62,225.698L459.258,221.136z"/>
</g>
<g>
	<polygon style="fill:#FFF7EE;" points="283.342,420.679 453.555,287.668 459.258,221.136 278.353,362.499 	"/>
	<path style="fill:#FFF7EE;" d="M455.121,155.972c0,5.952-4.872,10.822-10.828,10.822H281.199c-5.955,0-10.828-4.869-10.828-10.822
		v-19.326c0-5.95,4.873-10.819,10.828-10.819h163.094c5.956,0,10.828,4.869,10.828,10.819V155.972z"/>
</g>
<path style="opacity:0.1;enable-background:new    ;" d="M304.051,155.972v-19.326c0-5.95,4.872-10.819,10.827-10.819h-33.679
	c-5.955,0-10.828,4.869-10.828,10.819v19.326c0,5.952,4.873,10.822,10.828,10.822h33.679
	C308.923,166.794,304.051,161.925,304.051,155.972z"/>
<path style="fill:#F4E9DF;" d="M483.714,185.233c0,5.952-4.872,10.822-10.828,10.822H252.607c-5.956,0-10.828-4.869-10.828-10.822
	v-13.472c0-5.952,4.872-10.821,10.828-10.821h220.278c5.956,0,10.828,4.869,10.828,10.821L483.714,185.233L483.714,185.233z"/>
<path style="fill:#FFE98D;" d="M218.408,188.108c9.177-1.038,15.764-9.299,14.712-18.445c-0.096-0.832-0.272-1.631-0.481-2.413
	c0.463-0.023,0.925-0.037,1.394-0.089c11.145-1.261,19.144-11.288,17.864-22.398c-0.9-7.823-6.17-14.075-13.097-16.661
	c0.105-1.121,0.095-2.265-0.039-3.422c-1.054-9.149-9.349-15.722-18.528-14.682c-4.456,0.505-8.292,2.721-10.951,5.908
	c-3.824-2.482-8.499-3.706-13.384-3.152c-11.143,1.263-19.143,11.289-17.864,22.398c0.511,4.437,2.442,8.358,5.267,11.409
	c-4.487,3.445-7.117,9.067-6.425,15.088c1.054,9.147,9.351,15.722,18.528,14.68c1.679-0.19,3.273-0.626,4.747-1.262
	C201.951,183.346,209.787,189.088,218.408,188.108z"/>
<path style="fill:#FEBE2D;" d="M121.693,178.682c6.669,6.372,17.25,6.141,23.635-0.514c0.58-0.602,1.086-1.247,1.556-1.91
	c0.312,0.341,0.618,0.685,0.958,1.012c8.097,7.736,20.947,7.457,28.699-0.626c5.461-5.691,6.916-13.731,4.484-20.689
	c0.929-0.636,1.807-1.376,2.616-2.218c6.383-6.656,6.152-17.215-0.518-23.583c-3.239-3.094-7.401-4.618-11.558-4.618
	c-0.529-4.518-2.576-8.884-6.122-12.274c-8.1-7.732-20.95-7.455-28.701,0.626c-3.097,3.228-4.89,7.216-5.436,11.331
	c-5.53-1.236-11.546,0.342-15.75,4.722c-6.383,6.656-6.152,17.218,0.517,23.588c1.22,1.164,2.576,2.109,4.009,2.83
	C114.845,163.025,115.428,172.699,121.693,178.682z"/>
<path style="fill:#FEE12D;" d="M252.343,145.293c-7.993,4.61-10.724,14.817-6.101,22.79c0.42,0.722,0.901,1.39,1.405,2.025
	c-0.416,0.203-0.835,0.398-1.243,0.635c-9.702,5.601-13.02,17.99-7.407,27.674c3.955,6.82,11.283,10.457,18.66,10.07
	c0.355,1.067,0.822,2.117,1.404,3.126c4.625,7.976,14.85,10.701,22.842,6.088c3.883-2.242,6.509-5.807,7.668-9.789
	c4.494,0.754,9.266,0.009,13.521-2.441c9.705-5.604,13.019-17.997,7.406-27.677c-2.243-3.867-5.579-6.698-9.388-8.371
	c2.734-4.951,2.896-11.16-0.148-16.406c-4.623-7.977-14.847-10.702-22.838-6.089c-1.465,0.843-2.747,1.881-3.846,3.052
	C269.322,143.101,259.849,140.959,252.343,145.293z"/>
<g>
	<path style="fill:#FEBE2D;" d="M339.381,243.881c3.662-8.462-0.241-18.273-8.717-21.917c-0.77-0.332-1.552-0.579-2.337-0.79
		c0.213-0.412,0.432-0.814,0.619-1.247c4.448-10.27-0.29-22.187-10.584-26.617c-7.249-3.117-15.308-1.674-21,3.03
		c-0.923-0.649-1.922-1.212-2.998-1.673c-8.475-3.647-18.316,0.255-21.979,8.711c-1.778,4.11-1.76,8.533-0.311,12.42
		c-4.06,2.071-7.449,5.506-9.4,10.006c-4.447,10.272,0.29,22.188,10.584,26.617c4.111,1.769,8.482,2.054,12.539,1.128
		c0.762,5.598,4.342,10.677,9.921,13.077c8.477,3.644,18.318-0.256,21.982-8.717c0.669-1.546,1.083-3.143,1.263-4.737
		C327.052,255.746,335.94,251.826,339.381,243.881z"/>
	<path style="fill:#FEBE2D;" d="M184.444,174.059c-3.411,8.561,0.781,18.262,9.36,21.661c0.78,0.311,1.568,0.535,2.359,0.722
		c-0.2,0.417-0.406,0.832-0.58,1.267c-4.142,10.394,0.95,22.171,11.365,26.304c7.339,2.91,15.349,1.234,20.899-3.631
		c0.941,0.621,1.956,1.155,3.045,1.589c8.579,3.399,18.298-0.781,21.709-9.342c1.657-4.159,1.506-8.581-0.056-12.426
		c3.996-2.184,7.283-5.719,9.097-10.273c4.14-10.397-0.95-22.171-11.367-26.305c-4.161-1.649-8.539-1.807-12.565-0.768
		c-0.928-5.578-4.655-10.548-10.303-12.787c-8.58-3.401-18.299,0.782-21.708,9.34c-0.625,1.566-0.988,3.173-1.124,4.773
		C196.412,161.845,187.646,166.021,184.444,174.059z"/>
</g>
<path style="fill:#FFE98D;" d="M164.163,226.305c9.176,1.019,17.441-5.579,18.462-14.735c0.091-0.832,0.101-1.648,0.071-2.46
	c0.457,0.081,0.911,0.172,1.377,0.223c11.142,1.237,21.18-6.773,22.417-17.893c0.874-7.834-2.863-15.098-9.033-19.153
	c0.35-1.067,0.599-2.187,0.726-3.349c1.022-9.155-5.591-17.403-14.766-18.423c-4.458-0.496-8.691,0.822-11.993,3.341
	c-3.168-3.267-7.453-5.496-12.335-6.041c-11.142-1.235-21.18,6.777-22.418,17.896c-0.495,4.443,0.509,8.696,2.58,12.296
	c-5.144,2.367-8.964,7.267-9.637,13.295c-1.019,9.156,5.593,17.407,14.769,18.423c1.68,0.188,3.329,0.115,4.91-0.182
	C149.192,218.018,155.545,225.351,164.163,226.305z"/>
<path style="fill:#FEE12D;" d="M129.243,173.68c-0.529-4.517-2.575-8.884-6.123-12.274c-8.097-7.733-20.947-7.456-28.7,0.625
	c-3.097,3.229-4.889,7.216-5.435,11.333c-5.529-1.237-11.546,0.341-15.749,4.72c-6.383,6.656-6.153,17.217,0.517,23.588
	c1.219,1.166,2.575,2.107,4.008,2.832c-5.239,6.667-4.655,16.343,1.61,22.327c6.667,6.37,17.25,6.138,23.635-0.517
	c0.579-0.604,1.084-1.247,1.555-1.91c0.311,0.34,0.618,0.689,0.958,1.012c8.099,7.737,20.948,7.455,28.7-0.626
	c5.46-5.689,6.916-13.727,4.483-20.688c0.929-0.636,1.807-1.373,2.616-2.219c6.383-6.655,6.154-17.215-0.516-23.584"/>
<path style="fill:#FFE98D;" d="M49.374,233.723c0.341,9.206,8.096,16.39,17.322,16.05c0.838-0.029,1.651-0.141,2.45-0.292
	c-0.016,0.466-0.037,0.928-0.018,1.395c0.414,11.179,9.831,19.908,21.034,19.497c7.89-0.293,14.544-5.05,17.655-11.736
	c1.112,0.189,2.257,0.27,3.427,0.226c9.225-0.339,16.429-8.077,16.087-17.285c-0.165-4.473-2.09-8.458-5.073-11.344
	c2.772-3.611,4.35-8.166,4.17-13.062c-0.414-11.179-9.831-19.908-21.035-19.494c-4.475,0.164-8.543,1.777-11.807,4.354
	c-3.104-4.729-8.524-7.78-14.598-7.555c-9.225,0.34-16.429,8.078-16.087,17.287c0.062,1.684,0.378,3.302,0.902,4.819
	C55.387,217.725,49.053,225.073,49.374,233.723z"/>
<path style="fill:#FEBE2D;" d="M186.664,237.057c0-9.214-7.485-16.683-16.717-16.683c-0.837,0-1.654,0.084-2.459,0.202
	c0.031-0.462,0.07-0.924,0.07-1.393c0-11.186-9.089-20.255-20.298-20.255c-7.896,0-14.719,4.509-18.078,11.075
	c-1.102-0.23-2.244-0.35-3.417-0.35c-9.232,0-16.716,7.466-16.716,16.68c0,4.474,1.776,8.531,4.651,11.524
	c-2.904,3.505-4.651,8-4.651,12.903c0,11.184,9.089,20.252,20.299,20.252c4.478,0,8.604-1.463,11.962-3.915
	c2.926,4.842,8.231,8.086,14.307,8.086c9.233,0,16.717-7.466,16.717-16.68c0-1.689-0.257-3.314-0.723-4.849
	C180.062,252.82,186.664,245.708,186.664,237.057z"/>
<path style="fill:#FFE98D;" d="M272.201,269.853c8.313-4.007,11.796-13.982,7.778-22.276c-0.365-0.752-0.792-1.451-1.25-2.121
	c0.43-0.176,0.861-0.34,1.286-0.544c10.094-4.865,14.321-16.975,9.445-27.05c-3.434-7.093-10.471-11.263-17.857-11.423
	c-0.274-1.091-0.659-2.169-1.17-3.225c-4.016-8.292-14.01-11.77-22.323-7.759c-4.039,1.947-6.923,5.305-8.376,9.193
	c-4.425-1.086-9.24-0.701-13.664,1.434c-10.095,4.865-14.323,16.977-9.446,27.051c1.949,4.023,5.066,7.092,8.738,9.04
	c-3.094,4.738-3.716,10.914-1.071,16.375c4.017,8.294,14.01,11.768,22.324,7.762c1.521-0.735,2.878-1.67,4.063-2.759
	C255.107,270.779,264.394,273.615,272.201,269.853z"/>
<path style="fill:#FEE12D;" d="M239.202,233.481c0-9.212-7.486-16.68-16.718-16.68c-0.836,0-1.653,0.079-2.458,0.2
	c0.032-0.463,0.07-0.923,0.07-1.393c0-11.187-9.086-20.254-20.297-20.254c-7.894,0-14.722,4.507-18.078,11.075
	c-1.104-0.229-2.244-0.353-3.416-0.353c-9.234,0-16.718,7.47-16.718,16.683c0,4.474,1.777,8.526,4.651,11.526
	c-2.905,3.503-4.651,7.995-4.651,12.898c0,11.189,9.089,20.253,20.299,20.253c4.478,0,8.604-1.461,11.962-3.91
	c2.926,4.837,8.23,8.083,14.307,8.083c9.233,0,16.716-7.469,16.716-16.68c0-1.688-0.256-3.316-0.722-4.85
	C232.601,249.245,239.202,242.133,239.202,233.481z"/>
<path style="fill:#FFFFFF;" d="M295.888,495.378c2.978,0,5.843-2.397,6.368-5.325l39.963-223.27
	c0.525-2.929-1.483-5.326-4.461-5.326H52.359c-2.978,0-4.985,2.397-4.461,5.326l39.963,223.27c0.523,2.928,3.39,5.325,6.368,5.325
	H295.888z"/>
<g>
	<path style="fill:#E02424;" d="M52.359,261.459c-2.978,0-4.985,2.397-4.461,5.326l39.963,223.27
		c0.523,2.928,3.39,5.325,6.368,5.325h17.793c2.978,0,5.106-2.415,4.729-5.368l-28.44-223.186c-0.376-2.953-3.12-5.368-6.098-5.368
		H52.359V261.459z"/>
	<path style="fill:#E02424;" d="M178.908,495.378c-1.932-77.974-3.864-155.946-5.794-233.919h-38.97
		c5.362,77.973,10.724,155.945,16.087,233.919H178.908z"/>
	<path style="fill:#E02424;" d="M239.885,495.378c5.363-77.974,10.726-155.946,16.087-233.919h-38.969
		c-1.932,77.973-3.863,155.945-5.795,233.919H239.885z"/>
	<path style="fill:#E02424;" d="M307.904,261.459c-2.978,0-5.722,2.415-6.098,5.368l-28.441,223.185
		c-0.376,2.952,1.752,5.368,4.729,5.368h17.793c2.978,0,5.843-2.397,6.368-5.325l39.963-223.27c0.525-2.929-1.483-5.326-4.461-5.326
		H307.904L307.904,261.459z"/>
</g>
<ellipse style="fill:#F4E9DF;" cx="195.062" cy="372.485" rx="75.327" ry="52.96"/>
<path style="opacity:0.1;enable-background:new    ;" d="M142.307,372.481c0-26.553,27.794-48.537,64.041-52.366
	c-3.683-0.388-7.452-0.593-11.289-0.593c-41.604,0-75.331,23.709-75.331,52.961c0,29.251,33.727,52.96,75.331,52.96
	c3.837,0,7.606-0.204,11.289-0.593C170.101,421.015,142.307,399.034,142.307,372.481z"/>
<path style="fill:#F4E9DF;" d="M361.829,254.2c0,5.951-4.872,10.82-10.828,10.82H39.115c-5.956,0-10.828-4.869-10.828-10.82v-2.105
	c0-5.952,4.872-10.821,10.828-10.821h311.886c5.956,0,10.828,4.869,10.828,10.821L361.829,254.2L361.829,254.2z"/>
<path style="opacity:0.1;enable-background:new    ;" d="M62.138,254.2v-2.105c0-5.952,4.872-10.821,10.828-10.821H39.115
	c-5.956,0-10.828,4.869-10.828,10.821v2.105c0,5.951,4.872,10.82,10.828,10.82h33.851C67.01,265.021,62.138,260.151,62.138,254.2z"
	/>
<g>
	<path style="fill:#E02424;" d="M230.379,352.857h-70.642c-4.328,0-7.837,3.508-7.837,7.837s3.509,7.837,7.837,7.837h70.642
		c4.328,0,7.837-3.508,7.837-7.837C238.216,356.366,234.708,352.857,230.379,352.857z"/>
	<path style="fill:#E02424;" d="M215.904,378.253h-41.691c-4.328,0-7.837,3.508-7.837,7.837s3.509,7.837,7.837,7.837h41.691
		c4.328,0,7.837-3.508,7.837-7.837S220.232,378.253,215.904,378.253z"/>
</g>
<path style="fill:#5BA6DD;" d="M437.904,470.209h-106.41c-4.328,0-7.837,3.508-7.837,7.837s3.509,7.837,7.837,7.837H436.56
	L437.904,470.209z"/>
<path style="fill:#F4E9DF;" d="M308.012,506.589c0,2.976-2.437,5.41-5.414,5.41H87.519c-2.978,0-5.414-2.435-5.414-5.41v-15.303
	c0-2.977,2.436-5.41,5.414-5.41h215.08c2.978,0,5.414,2.434,5.414,5.41V506.589z"/>
<path style="opacity:0.1;enable-background:new    ;" d="M116.319,506.589v-15.303c0-2.977,2.436-5.41,5.414-5.41H87.519
	c-2.978,0-5.414,2.434-5.414,5.41v15.303c0,2.976,2.436,5.41,5.414,5.41h34.215C118.756,512,116.319,509.565,116.319,506.589z"/>
<g>
</g>
<g>
</g>
<g>
</g>
<g>
</g>
<g>
</g>
<g>
</g>
<g>
</g>
<g>
</g>
<g>
</g>
<g>
</g>
<g>
</g>
<g>
</g>
<g>
</g>
<g>
</g>
<g>
</g>
</svg>
